# xmcd
#
# Track frame offsets: 
#        150
#        20792
#        42684
#        63820
#        83156
#        98790
#        122253
#        156828
#
# Disc length: 2398 seconds
#
# Revision: 0
# Processed by: cddbd v1.4PL0 Copyright (c) Steve Scherf et al.
# Submitted via: ExactAudioCopy v0.90b3
#
DISCID=5f095c08
DTITLE=Bryan James Gatten - A Package From Home
DYEAR=2002
DGENRE=Blues/Rock
TTITLE0=Ripped-Off Funk
TTITLE1=Band Meets Van
TTITLE2='Cause We've Ended As Lovers
TTITLE3=Just Swinging Around
TTITLE4=Joe's Groove (radio mix)
TTITLE5=Brush With The Blues
TTITLE6=I See The Lord
TTITLE7=Joe's Groove (reprise)
EXTD=
EXTT0=
EXTT1=
EXTT2=
EXTT3=
EXTT4=
EXTT5=
EXTT6=
EXTT7=
PLAYORDER=
